<svg width="24" height="24" viewBox="0 0 24 24" fill="none" xmlns="http://www.w3.org/2000/svg">
<g filter="url(#filter0_i)">
<path d="M23.0529 17.0145H7.12161L7.92152 15.2027L21.2124 15.1759C21.6618 15.1759 22.047 14.8189 22.1273 14.325L23.9679 2.86798C24.0161 2.5675 23.9438 2.25809 23.7673 2.02306C23.68 1.90739 23.5711 1.81421 23.4483 1.74999C23.3254 1.68578 23.1914 1.65206 23.0556 1.65117L6.14781 1.58869L6.00334 0.833023C5.91238 0.35106 5.52179 0 5.07769 0H0.944376C0.693912 0 0.453706 0.110646 0.276601 0.307598C0.0994965 0.504549 0 0.771673 0 1.0502C0 1.32874 0.0994965 1.59586 0.276601 1.79281C0.453706 1.98976 0.693912 2.10041 0.944376 2.10041H4.31256L4.94393 5.43845L6.49827 13.8074L4.49716 17.4399C4.39324 17.5959 4.33064 17.7811 4.31646 17.9746C4.30228 18.1681 4.33707 18.3621 4.4169 18.5348C4.57742 18.8888 4.90113 19.1119 5.25961 19.1119H6.93969C6.58152 19.641 6.38806 20.2854 6.38859 20.9476C6.38859 22.6315 7.61922 24 9.13343 24C10.6476 24 11.8783 22.6315 11.8783 20.9476C11.8783 20.2841 11.6803 19.6385 11.3272 19.1119H15.6371C15.2789 19.641 15.0854 20.2854 15.0859 20.9476C15.0859 22.6315 16.3166 24 17.8308 24C19.345 24 20.5756 22.6315 20.5756 20.9476C20.5756 20.2841 20.3777 19.6385 20.0245 19.1119H23.0556C23.5746 19.1119 24 18.6419 24 18.0617C23.9984 17.7835 23.898 17.5172 23.7206 17.321C23.5432 17.1248 23.3032 17.0147 23.0529 17.0145ZM6.54108 3.65935L21.9454 3.71588L20.4365 13.1112L8.33619 13.135L6.54108 3.65935ZM9.13343 21.8877C8.66793 21.8877 8.28804 21.4652 8.28804 20.9476C8.28804 20.4299 8.66793 20.0074 9.13343 20.0074C9.59893 20.0074 9.97882 20.4299 9.97882 20.9476C9.97882 21.1969 9.88975 21.436 9.73121 21.6123C9.57267 21.7886 9.35764 21.8877 9.13343 21.8877ZM17.8308 21.8877C17.3653 21.8877 16.9854 21.4652 16.9854 20.9476C16.9854 20.4299 17.3653 20.0074 17.8308 20.0074C18.2963 20.0074 18.6762 20.4299 18.6762 20.9476C18.6762 21.1969 18.5871 21.436 18.4286 21.6123C18.27 21.7886 18.055 21.8877 17.8308 21.8877Z" fill="#FF6666"/>
</g>
<path d="M23.4453 1.75571L23.0525 2.50736L23.4453 1.75571ZM23.4453 1.75571L23.4483 1.74999L23.4453 1.75571ZM23.0556 17.9224L23.0529 17.9248L23.0556 17.9224ZM23.05 2.51206L23.0071 2.5941L23.05 2.51206ZM9.13343 19.8877C9.25513 19.8877 9.36591 19.9021 9.46635 19.928L9.65388 20.2077C9.51021 20.0823 9.3294 20.0074 9.13343 20.0074C8.93761 20.0074 8.75694 20.0822 8.61333 20.2073L8.79864 19.9336C8.90283 19.9042 9.01498 19.8877 9.13343 19.8877ZM9.64557 21.6955C9.4992 21.8195 9.31948 21.8877 9.13343 21.8877C8.94039 21.8877 8.76207 21.815 8.61946 21.6931C8.63907 21.7197 8.65943 21.7447 8.68034 21.7679C8.83976 21.9452 9.00324 22 9.13343 22C9.26362 22 9.4271 21.9452 9.58652 21.7679C9.60678 21.7454 9.62653 21.7213 9.64557 21.6955ZM17.8308 19.8877C17.9525 19.8877 18.0633 19.9021 18.1637 19.928L18.3512 20.2076C18.2076 20.0823 18.0268 20.0074 17.8308 20.0074C17.635 20.0074 17.4543 20.0822 17.3107 20.2073L17.496 19.9336C17.6002 19.9042 17.7123 19.8877 17.8308 19.8877ZM18.3429 21.6955C18.1966 21.8195 18.0168 21.8877 17.8308 21.8877C17.6377 21.8877 17.4594 21.815 17.3168 21.6931C17.3364 21.7197 17.3568 21.7447 17.3777 21.7679C17.5371 21.9452 17.7006 22 17.8308 22C17.961 22 18.1245 21.9452 18.2839 21.7679C18.3041 21.7454 18.3239 21.7213 18.3429 21.6955ZM23.0556 17.1119H23.0529H23.0556Z" stroke="#FF6666" stroke-width="4"/>
<defs>
<filter id="filter0_i" x="0" y="0" width="24" height="28" filterUnits="userSpaceOnUse" color-interpolation-filters="sRGB">
<feFlood flood-opacity="0" result="BackgroundImageFix"/>
<feBlend mode="normal" in="SourceGraphic" in2="BackgroundImageFix" result="shape"/>
<feColorMatrix in="SourceAlpha" type="matrix" values="0 0 0 0 0 0 0 0 0 0 0 0 0 0 0 0 0 0 127 0" result="hardAlpha"/>
<feOffset dy="4"/>
<feGaussianBlur stdDeviation="2"/>
<feComposite in2="hardAlpha" operator="arithmetic" k2="-1" k3="1"/>
<feColorMatrix type="matrix" values="0 0 0 0 1 0 0 0 0 0 0 0 0 0 0 0 0 0 0.25 0"/>
<feBlend mode="normal" in2="shape" result="effect1_innerShadow"/>
</filter>
</defs>
</svg>
