<svg width="110" height="110" viewBox="0 0 110 110" fill="none" xmlns="http://www.w3.org/2000/svg">
<circle cx="55" cy="55" r="54.5" stroke="#8D92A3" stroke-dasharray="10 10"/>
<circle cx="55" cy="55" r="45" fill="#F0F0F0"/>
<path d="M47.8372 46.592H43.3432L42.4472 49H41.3972L45.0372 39.354H46.1432L49.7832 49H48.7192L47.8372 46.592ZM47.5432 45.808L45.5972 40.488L43.6232 45.808H47.5432ZM54.369 41.258C55.1436 41.258 55.8016 41.4587 56.343 41.86C56.8936 42.2613 57.267 42.7933 57.463 43.456V38.64H58.443V49H57.463V46.9C57.267 47.5627 56.8936 48.0947 56.343 48.496C55.8016 48.8973 55.1436 49.098 54.369 49.098C53.6783 49.098 53.0576 48.9393 52.507 48.622C51.9656 48.3047 51.541 47.852 51.233 47.264C50.9343 46.6667 50.785 45.9713 50.785 45.178C50.785 44.3753 50.9343 43.68 51.233 43.092C51.541 42.4947 51.9656 42.042 52.507 41.734C53.0483 41.4167 53.669 41.258 54.369 41.258ZM54.621 42.126C53.7623 42.126 53.0716 42.4013 52.549 42.952C52.0356 43.4933 51.779 44.2353 51.779 45.178C51.779 46.1207 52.0356 46.8673 52.549 47.418C53.0716 47.9593 53.7623 48.23 54.621 48.23C55.1623 48.23 55.6476 48.104 56.077 47.852C56.5156 47.6 56.8563 47.2453 57.099 46.788C57.351 46.3213 57.477 45.7847 57.477 45.178C57.477 44.5713 57.351 44.0393 57.099 43.582C56.8563 43.1153 56.5156 42.756 56.077 42.504C55.6476 42.252 55.1623 42.126 54.621 42.126ZM63.7889 41.258C64.5635 41.258 65.2215 41.4587 65.7629 41.86C66.3135 42.2613 66.6869 42.7933 66.8829 43.456V38.64H67.8629V49H66.8829V46.9C66.6869 47.5627 66.3135 48.0947 65.7629 48.496C65.2215 48.8973 64.5635 49.098 63.7889 49.098C63.0982 49.098 62.4775 48.9393 61.9269 48.622C61.3855 48.3047 60.9609 47.852 60.6529 47.264C60.3542 46.6667 60.2049 45.9713 60.2049 45.178C60.2049 44.3753 60.3542 43.68 60.6529 43.092C60.9609 42.4947 61.3855 42.042 61.9269 41.734C62.4682 41.4167 63.0889 41.258 63.7889 41.258ZM64.0409 42.126C63.1822 42.126 62.4915 42.4013 61.9689 42.952C61.4555 43.4933 61.1989 44.2353 61.1989 45.178C61.1989 46.1207 61.4555 46.8673 61.9689 47.418C62.4915 47.9593 63.1822 48.23 64.0409 48.23C64.5822 48.23 65.0675 48.104 65.4969 47.852C65.9355 47.6 66.2762 47.2453 66.5189 46.788C66.7709 46.3213 66.8969 45.7847 66.8969 45.178C66.8969 44.5713 66.7709 44.0393 66.5189 43.582C66.2762 43.1153 65.9355 42.756 65.4969 42.504C65.0675 42.252 64.5822 42.126 64.0409 42.126ZM37.1586 65.884V70H36.1646V60.13H39.1186C40.2293 60.13 41.0553 60.3867 41.5966 60.9C42.1473 61.4133 42.4226 62.118 42.4226 63.014C42.4226 63.9287 42.1379 64.638 41.5686 65.142C41.0086 65.6367 40.1919 65.884 39.1186 65.884H37.1586ZM39.0346 65.044C39.8839 65.044 40.4953 64.8713 40.8686 64.526C41.2419 64.1713 41.4286 63.6673 41.4286 63.014C41.4286 62.342 41.2419 61.8333 40.8686 61.488C40.4953 61.1333 39.8839 60.956 39.0346 60.956H37.1586V65.044H39.0346ZM47.7932 62.216C48.6799 62.216 49.3986 62.5007 49.9492 63.07C50.5092 63.63 50.7892 64.456 50.7892 65.548V70H49.8232V65.618C49.8232 64.7873 49.6132 64.1527 49.1932 63.714C48.7732 63.266 48.1992 63.042 47.4712 63.042C46.7059 63.042 46.0946 63.2893 45.6372 63.784C45.1892 64.2693 44.9652 64.988 44.9652 65.94V70H43.9712V59.64H44.9652V64.232C45.1612 63.5787 45.5159 63.0793 46.0292 62.734C46.5426 62.3887 47.1306 62.216 47.7932 62.216ZM56.3159 62.258C57.0439 62.258 57.6926 62.4167 58.2619 62.734C58.8406 63.042 59.2933 63.4947 59.6199 64.092C59.9466 64.68 60.1099 65.3753 60.1099 66.178C60.1099 66.9807 59.9466 67.676 59.6199 68.264C59.2933 68.852 58.8406 69.3047 58.2619 69.622C57.6926 69.9393 57.0439 70.098 56.3159 70.098C55.5879 70.098 54.9346 69.9393 54.3559 69.622C53.7773 69.3047 53.3199 68.852 52.9839 68.264C52.6573 67.6667 52.4939 66.9713 52.4939 66.178C52.4939 65.3753 52.6573 64.68 52.9839 64.092C53.3199 63.4947 53.7773 63.042 54.3559 62.734C54.9346 62.4167 55.5879 62.258 56.3159 62.258ZM56.3159 63.112C55.8119 63.112 55.3453 63.224 54.9159 63.448C54.4866 63.672 54.1413 64.0173 53.8799 64.484C53.6186 64.9413 53.4879 65.506 53.4879 66.178C53.4879 66.85 53.6186 67.4147 53.8799 67.872C54.1413 68.3293 54.4866 68.67 54.9159 68.894C55.3453 69.118 55.8119 69.23 56.3159 69.23C56.8106 69.23 57.2679 69.118 57.6879 68.894C58.1173 68.67 58.4626 68.3293 58.7239 67.872C58.9853 67.4147 59.1159 66.85 59.1159 66.178C59.1159 65.506 58.9853 64.9413 58.7239 64.484C58.4626 64.0173 58.1173 63.672 57.6879 63.448C57.2679 63.224 56.8106 63.112 56.3159 63.112ZM65.3397 69.132V70H64.4297C63.6924 70 63.1417 69.8273 62.7777 69.482C62.4137 69.1273 62.2317 68.5347 62.2317 67.704V63.21H61.0697V62.356H62.2317V60.424H63.2257V62.356H65.3257V63.21H63.2257V67.718C63.2257 68.2593 63.3237 68.6327 63.5197 68.838C63.7157 69.034 64.061 69.132 64.5557 69.132H65.3397ZM70.4116 62.258C71.1396 62.258 71.7883 62.4167 72.3576 62.734C72.9363 63.042 73.389 63.4947 73.7156 64.092C74.0423 64.68 74.2056 65.3753 74.2056 66.178C74.2056 66.9807 74.0423 67.676 73.7156 68.264C73.389 68.852 72.9363 69.3047 72.3576 69.622C71.7883 69.9393 71.1396 70.098 70.4116 70.098C69.6836 70.098 69.0303 69.9393 68.4516 69.622C67.873 69.3047 67.4156 68.852 67.0796 68.264C66.753 67.6667 66.5896 66.9713 66.5896 66.178C66.5896 65.3753 66.753 64.68 67.0796 64.092C67.4156 63.4947 67.873 63.042 68.4516 62.734C69.0303 62.4167 69.6836 62.258 70.4116 62.258ZM70.4116 63.112C69.9076 63.112 69.441 63.224 69.0116 63.448C68.5823 63.672 68.237 64.0173 67.9756 64.484C67.7143 64.9413 67.5836 65.506 67.5836 66.178C67.5836 66.85 67.7143 67.4147 67.9756 67.872C68.237 68.3293 68.5823 68.67 69.0116 68.894C69.441 69.118 69.9076 69.23 70.4116 69.23C70.9063 69.23 71.3636 69.118 71.7836 68.894C72.213 68.67 72.5583 68.3293 72.8196 67.872C73.081 67.4147 73.2116 66.85 73.2116 66.178C73.2116 65.506 73.081 64.9413 72.8196 64.484C72.5583 64.0173 72.213 63.672 71.7836 63.448C71.3636 63.224 70.9063 63.112 70.4116 63.112Z" fill="#8D92A3"/>
</svg>
